<svg width="367" height="219" viewBox="0 0 367 219" fill="none" xmlns="http://www.w3.org/2000/svg">
<path d="M25.3708 205.495L47.0155 174.641L25.3598 208.851L25.3471 212.361C23.8036 212.349 22.2757 212.299 20.7633 212.212C20.7564 211.415 22.5961 167.559 22.5179 166.766C22.6247 166.736 22.6846 162.618 22.727 162.438L0.114502 128.721L22.7512 159.246L22.8187 160.149L24.1617 126.076L4.72383 91.1834L24.3154 120.089C24.3227 119.625 25.2427 49.6651 25.2517 49.2335C25.2573 49.4628 25.6795 104.908 25.6827 105.141L44.2726 82.8241L25.6648 109.937L25.5698 140.432L42.8211 110.943C21.2916 153.948 26.0562 138.899 25.5063 161.873L50.5649 120.811L25.4849 167.788L25.3708 205.495Z" fill="#D0CDE1"/>
<path d="M356.501 209.684L365.521 196.826L356.496 211.082L356.491 212.545C355.848 212.54 355.211 212.519 354.581 212.483C354.578 212.151 355.345 193.875 355.312 193.544C355.357 193.532 355.382 191.816 355.399 191.741L345.976 177.69L355.409 190.411L355.437 190.787L355.997 176.588L347.897 162.047L356.061 174.093C356.064 173.9 356.448 144.746 356.451 144.566C356.454 144.661 356.63 167.767 356.631 167.864L364.378 158.564L356.624 169.862L356.584 182.57L363.773 170.282C354.801 188.203 356.787 181.932 356.557 191.505L367 174.394L356.549 193.97L356.501 209.684Z" fill="#D0CDE1"/>
<path d="M182.9 219C283.913 219 365.8 215.817 365.8 211.891C365.8 207.964 283.913 204.781 182.9 204.781C81.8872 204.781 0 207.964 0 211.891C0 215.817 81.8872 219 182.9 219Z" fill="#D0CDE1"/>
<path d="M271.62 83.9678H62.7866V207.49H271.62V83.9678Z" fill="#3F3D56"/>
<path d="M114.47 83.9678C114.256 96.966 108.902 109.36 99.5619 118.478C90.2217 127.595 77.6439 132.706 64.5406 132.707C63.9536 132.707 63.3701 132.697 62.7866 132.677V83.9678H114.47Z" fill="#6C63FF"/>
<path d="M177.419 207.49H157.557C158.304 205.474 159.657 203.733 161.433 202.504C163.209 201.275 165.322 200.615 167.488 200.615C169.653 200.615 171.767 201.275 173.543 202.504C175.319 203.733 176.672 205.474 177.419 207.49Z" fill="#6C63FF"/>
<path d="M271.62 143.598V185.204C266.236 184.943 261.16 182.637 257.442 178.765C253.725 174.892 251.652 169.749 251.652 164.401C251.652 159.053 253.725 153.91 257.442 150.037C261.16 146.165 266.236 143.859 271.62 143.598Z" fill="#6C63FF"/>
<path d="M233.256 128.853H101.513C98.1151 128.853 95.3604 131.586 95.3604 134.957V134.957C95.3604 138.328 98.1151 141.061 101.513 141.061H233.256C236.654 141.061 239.409 138.328 239.409 134.957C239.409 131.586 236.654 128.853 233.256 128.853Z" fill="white"/>
<path d="M233.256 152.911H101.513C98.1151 152.911 95.3604 155.644 95.3604 159.015V159.015C95.3604 162.386 98.1151 165.119 101.513 165.119H233.256C236.654 165.119 239.409 162.386 239.409 159.015C239.409 155.644 236.654 152.911 233.256 152.911Z" fill="white"/>
<path d="M233.256 176.968H195.058C191.659 176.968 188.905 179.701 188.905 183.073C188.905 186.444 191.659 189.177 195.058 189.177H233.256C236.654 189.177 239.409 186.444 239.409 183.073C239.409 179.701 236.654 176.968 233.256 176.968Z" fill="white"/>
<path d="M304.738 37.9568C304.738 37.9568 310.48 40.1723 310.799 47.4521C311.118 54.7318 309.204 74.9884 309.204 74.9884C309.204 74.9884 316.223 85.1167 310.799 87.9653C305.376 90.8139 304.738 76.5709 304.738 76.5709L298.357 46.5025C298.357 46.5025 302.185 37.6403 304.738 37.9568Z" fill="#A0616A"/>
<path d="M246.036 61.3785C246.036 61.3785 232.318 70.2407 231.68 63.2775C231.042 56.3143 235.828 29.0945 235.828 29.0945C235.828 29.0945 236.466 17.3836 243.165 20.2322C249.865 23.0808 241.251 32.8926 241.251 32.8926L242.208 55.0483L248.589 54.7318L246.036 61.3785Z" fill="#A0616A"/>
<path d="M268.049 69.6077C268.049 69.6077 225.938 54.0988 228.171 72.1398C230.404 90.1808 241.251 112.97 241.251 112.97L245.079 118.983H253.055L247.951 86.3827C247.951 86.3827 266.135 96.511 271.559 94.9285C271.559 94.9285 278.577 141.455 281.13 144.937C283.682 148.419 288.148 190.514 288.148 190.514L292.295 195.579H300.271V124.364C300.271 124.364 313.989 80.0525 303.461 77.837C292.934 75.6214 268.049 69.6077 268.049 69.6077Z" fill="#2F2E41"/>
<path d="M244.122 114.869C244.122 114.869 242.208 111.387 239.018 114.869C235.828 118.35 228.171 122.465 228.171 122.465C228.171 122.465 211.581 126.263 224.981 129.428C238.38 132.593 239.975 129.428 239.975 129.428C239.975 129.428 242.208 130.061 244.122 130.694C246.036 131.327 258.479 129.112 258.479 127.212C258.479 125.313 254.255 113.964 252.538 115.682C250.822 117.401 244.122 114.869 244.122 114.869Z" fill="#2F2E41"/>
<path d="M292.907 192.446C292.907 192.446 288.203 188.602 287.096 189.7C285.989 190.799 280.179 198.21 280.179 198.21C280.179 198.21 264.683 210.015 278.795 211.936C292.907 213.858 292.077 208.642 292.077 208.642H296.504C297.057 208.642 304.528 205.348 304.252 203.975C303.975 202.603 300.654 191.41 299.548 192.202C298.441 192.995 292.907 192.446 292.907 192.446Z" fill="#2F2E41"/>
<path d="M250.184 25.9294C256.174 25.9294 261.031 21.1114 261.031 15.1681C261.031 9.22477 256.174 4.40676 250.184 4.40676C244.193 4.40676 239.337 9.22477 239.337 15.1681C239.337 21.1114 244.193 25.9294 250.184 25.9294Z" fill="#A0616A"/>
<path d="M257.84 13.902C257.84 13.902 266.135 20.8653 271.878 20.8653C277.62 20.8653 263.583 33.8422 263.583 33.8422L251.141 22.7643L257.84 13.902Z" fill="#A0616A"/>
<path d="M261.031 33.8422L260.782 31.3486C260.782 31.3486 267.092 20.2322 269.006 19.2827C270.921 18.3332 272.197 18.3332 272.197 18.3332C272.197 18.3332 278.577 11.6865 285.596 15.1681C292.614 18.6497 309.204 40.8054 309.204 40.8054C309.204 40.8054 297.4 41.7549 298.995 50.9337C298.995 50.9337 310.799 81.0021 307.609 81.3186C304.418 81.6351 294.848 79.4195 284.958 83.8506C275.068 88.2818 270.602 85.4332 270.602 85.4332L265.497 68.9747C265.497 68.9747 255.926 63.594 256.245 58.8464L242.368 65.0183L243.644 53.3075L252.098 43.6539C252.098 43.6539 250.503 42.3879 261.031 33.8422Z" fill="#575A89"/>
<path d="M240.206 16.3315C239.775 16.8068 239.235 17.1719 238.631 17.3958C238.013 17.5686 237.235 17.3567 236.988 16.7685L237.447 16.1763L236.072 15.3286L236.671 14.6312L235.564 13.4381L236.438 12.7501L234.774 11.5692C236.931 8.0773 239.263 4.54168 242.669 2.22688C246.074 -0.0879113 250.833 -0.910439 254.321 1.27904C256.132 2.41579 257.413 4.22 258.439 6.08687C260.502 9.84134 262.321 13.5011 262.59 17.769C261.294 16.5169 259.401 15.8113 258.105 14.5591C257.531 13.9549 256.881 13.4269 256.171 12.9881C254.815 12.2296 253.193 12.1625 251.676 11.8204C250.4 11.5328 249.572 10.9621 248.606 10.1463C247.458 9.17589 247.411 9.55113 246.251 10.6437C244.237 12.541 242.222 14.4369 240.206 16.3315Z" fill="#2F2E41"/>
</svg>
