<svg width="465" height="334" viewBox="0 0 465 334" fill="none" xmlns="http://www.w3.org/2000/svg">
<g clip-path="url(#clip0)">
<path d="M465 334C441.04 330.496 417.997 327.476 395.872 324.939L404.621 310.805C401.671 309.935 388.712 317.993 388.712 317.993L400.197 276.899C385.363 278.326 377.815 320.304 377.815 320.304L361.244 306.023L369.265 322.03C301.549 315.051 243.066 312.31 193.876 311.994L201.364 299.896C198.414 299.026 185.455 307.084 185.455 307.084L196.94 265.991C182.106 267.417 174.558 309.395 174.558 309.395L157.987 295.114L166.482 312.068C125.244 312.567 91.6142 314.764 65.6569 317.327C73.2317 298.462 98.9572 280.606 98.9572 280.606C79.3121 285.398 69.0064 293.534 63.6208 301.138C63.2091 277.801 65.9785 234.548 86.5538 186.743C86.5538 186.743 45.9388 260.41 51.1126 310.008L51.731 318.814C17.3071 322.774 -1.52588e-05 326.981 -1.52588e-05 326.981L465 334Z" fill="#3F3D56"/>
<path d="M247.257 13.3778V311.059C247.253 314.605 245.84 318.005 243.328 320.511C240.815 323.018 237.409 324.426 233.857 324.428H112.811C111.051 324.431 109.308 324.087 107.682 323.416C106.055 322.746 104.577 321.761 103.332 320.519C102.088 319.278 101.101 317.803 100.428 316.179C99.7549 314.556 99.4095 312.816 99.4114 311.059V13.3778C99.4112 11.6209 99.7577 9.88129 100.431 8.25815C101.104 6.63502 102.091 5.16021 103.336 3.91794C104.58 2.67567 106.057 1.69028 107.683 1.01804C109.309 0.3458 111.051 -0.000120856 112.811 3.11452e-05H130.925V2.31921C130.925 5.24047 132.087 8.04227 134.155 10.1083C136.224 12.1744 139.03 13.3356 141.956 13.3364H203.521C205.876 13.3415 208.17 12.5877 210.062 11.1872C210.444 10.9095 210.807 10.6056 211.148 10.2779C212.225 9.25057 213.083 8.01541 213.668 6.64734C214.253 5.27926 214.553 3.80678 214.551 2.31921V3.11452e-05H233.857C235.617 -0.000507101 237.36 0.345152 238.986 1.01726C240.612 1.68936 242.089 2.67474 243.333 3.91708C244.578 5.15943 245.565 6.63439 246.238 8.2577C246.911 9.881 247.257 11.6208 247.257 13.3778Z" fill="#3F3D56"/>
<path d="M133.133 52.8129C134.912 52.8129 136.353 51.3737 136.353 49.5982C136.353 47.8228 134.912 46.3835 133.133 46.3835C131.355 46.3835 129.913 47.8228 129.913 49.5982C129.913 51.3737 131.355 52.8129 133.133 52.8129Z" fill="#F2F2F2"/>
<path d="M211.148 10.2779C210.807 10.6056 210.444 10.9094 210.062 11.1872C214.006 18.1157 219.348 24.1505 225.751 28.9088C232.154 33.6672 239.477 37.0453 247.257 38.829V37.3962C239.687 35.6134 232.57 32.2831 226.355 27.6155C220.14 22.9479 214.962 17.0445 211.148 10.2779Z" fill="#1B3A4F"/>
<path d="M183.636 13.3364H182.127C187.483 26.9236 196.317 38.8693 207.746 47.98C219.175 57.0906 232.799 63.0469 247.257 65.2538V63.8301C233.176 61.647 219.906 55.8438 208.752 46.9909C197.597 38.1379 188.942 26.5399 183.636 13.3364Z" fill="#1B3A4F"/>
<path d="M155.843 13.3364H154.389C166.547 55.4673 203.231 86.829 247.257 91.922V90.5213C203.995 85.4513 167.941 54.6866 155.843 13.3364Z" fill="#1B3A4F"/>
<path d="M122.553 73.3971H121.715V72.5604H121.552V73.3971H120.713V73.5606H121.552V74.3973H121.715V73.5606H122.553V73.3971Z" fill="#F2F2F2"/>
<path d="M179.132 31.606H178.294V30.7693H178.131V31.606H177.292V31.7695H178.131V32.6062H178.294V31.7695H179.132V31.606Z" fill="#F2F2F2"/>
<path d="M130.833 106.463H129.995V105.626H129.832V106.463H128.993V106.626H129.832V107.463H129.995V106.626H130.833V106.463Z" fill="#F2F2F2"/>
<path d="M169.472 82.1227H168.634V81.286H168.471V82.1227H167.632V82.2862H168.471V83.1229H168.634V82.2862H169.472V82.1227Z" fill="#F2F2F2"/>
<path d="M224.671 97.2777H223.833V96.441H223.67V97.2777H222.831V97.4412H223.67V98.278H223.833V97.4412H224.671V97.2777Z" fill="#F2F2F2"/>
<path d="M215.011 59.2423C216.028 59.2423 216.851 58.4199 216.851 57.4054C216.851 56.3908 216.028 55.5684 215.011 55.5684C213.995 55.5684 213.172 56.3908 213.172 57.4054C213.172 58.4199 213.995 59.2423 215.011 59.2423Z" fill="#FF6584"/>
<path d="M149.095 100.482L148.051 100.643C148.377 102.728 148.635 104.859 148.824 106.967L149.877 106.875C149.688 104.74 149.426 102.59 149.095 100.482Z" fill="#E6E6E6"/>
<path d="M146.238 87.9266L145.226 88.2343C145.838 90.255 146.386 92.3262 146.85 94.3882L147.885 94.154C147.411 92.069 146.855 89.9748 146.238 87.9266Z" fill="#E6E6E6"/>
<path d="M141.68 75.8853L140.719 76.3262C141.602 78.2504 142.43 80.2251 143.179 82.1999L144.168 81.8279C143.409 79.8302 142.577 77.8279 141.68 75.8853Z" fill="#E6E6E6"/>
<path d="M135.516 64.5971L134.624 65.162C135.76 66.9438 136.85 68.79 137.862 70.6407L138.791 70.1356C137.77 68.2619 136.666 66.3973 135.516 64.5971Z" fill="#E6E6E6"/>
<path d="M127.853 54.2504L127.048 54.9347C128.418 56.542 129.752 58.2228 131.013 59.922L131.859 59.2929C130.589 57.5753 129.242 55.8761 127.853 54.2504Z" fill="#E6E6E6"/>
<path d="M118.846 45.038L118.142 45.8233C119.725 47.2332 121.275 48.7165 122.751 50.2274L123.51 49.488C122.015 47.9587 120.447 46.4616 118.846 45.038Z" fill="#E6E6E6"/>
<path d="M108.671 37.1298L108.078 38.0023C109.835 39.1826 111.574 40.4409 113.243 41.7406L113.896 40.9093C112.204 39.5959 110.447 38.3238 108.671 37.1298Z" fill="#E6E6E6"/>
<path d="M99.4114 31.6373V32.8313C100.511 33.4054 101.601 34.007 102.668 34.6223L103.197 33.7084C101.955 32.992 100.693 32.3016 99.4114 31.6373Z" fill="#E6E6E6"/>
<path d="M148.856 199.68C149.027 198.653 149.184 197.605 149.323 196.564L150.371 196.703C150.231 197.755 150.073 198.815 149.899 199.854L148.856 199.68Z" fill="#E6E6E6"/>
<path d="M145.908 212.07L146.919 212.384C147.553 210.344 148.127 208.253 148.624 206.17L147.594 205.927C147.101 207.987 146.537 210.052 145.908 212.07Z" fill="#E6E6E6"/>
<path d="M141.289 223.933L142.248 224.382C143.161 222.45 144.015 220.459 144.79 218.465L143.803 218.081C143.037 220.053 142.192 222.022 141.289 223.933Z" fill="#E6E6E6"/>
<path d="M135.074 235.062L135.961 235.637C137.13 233.846 138.253 231.99 139.298 230.122L138.375 229.605C137.344 231.453 136.231 233.288 135.074 235.062Z" fill="#E6E6E6"/>
<path d="M127.384 245.229L128.186 245.923C129.593 244.302 130.957 242.617 132.25 240.912L131.403 240.28C130.128 241.965 128.778 243.629 127.384 245.229Z" fill="#E6E6E6"/>
<path d="M118.38 254.251L119.076 255.045C120.694 253.636 122.276 252.15 123.787 250.64L123.039 249.892C121.545 251.387 119.977 252.852 118.38 254.251Z" fill="#E6E6E6"/>
<path d="M108.236 261.962L108.82 262.845C110.606 261.668 112.38 260.413 114.081 259.12L113.442 258.277C111.757 259.559 110.005 260.8 108.236 261.962Z" fill="#E6E6E6"/>
<path d="M103.317 266.2C102.038 266.921 100.732 267.619 99.4114 268.28V267.096C100.552 266.517 101.684 265.906 102.792 265.286L103.317 266.2Z" fill="#E6E6E6"/>
<path d="M149.166 113.482L150.224 113.462C150.243 114.528 150.244 115.6 150.228 116.648L149.171 116.631C149.187 115.595 149.185 114.536 149.166 113.482Z" fill="#E6E6E6"/>
<path d="M104.057 138.522H212.252C220.303 138.522 228.025 141.716 233.719 147.4C239.412 153.084 242.611 160.794 242.611 168.832V172.844H134.417C126.365 172.844 118.643 169.651 112.949 163.967C107.256 158.283 104.057 150.573 104.057 142.534V138.522Z" fill="white"/>
<path d="M175.862 324.006C175.756 323.833 173.267 319.684 172.404 311.068C171.613 303.163 172.121 289.839 179.043 271.252C192.155 236.042 176.021 207.632 175.856 207.349L176.652 206.888C176.694 206.96 180.857 214.203 183.317 225.737C186.566 241.029 185.383 256.928 179.905 271.573C166.815 306.723 176.547 323.363 176.647 323.527L175.862 324.006Z" fill="#F2F2F2"/>
<path d="M170.734 205.282C174.037 205.282 176.714 202.609 176.714 199.311C176.714 196.014 174.037 193.341 170.734 193.341C167.432 193.341 164.754 196.014 164.754 199.311C164.754 202.609 167.432 205.282 170.734 205.282Z" fill="#1B3A4F"/>
<path d="M189.594 227.325C192.896 227.325 195.574 224.652 195.574 221.355C195.574 218.058 192.896 215.385 189.594 215.385C186.291 215.385 183.614 218.058 183.614 221.355C183.614 224.652 186.291 227.325 189.594 227.325Z" fill="#F2F2F2"/>
<path d="M176.714 242.021C180.017 242.021 182.694 239.348 182.694 236.051C182.694 232.754 180.017 230.081 176.714 230.081C173.412 230.081 170.734 232.754 170.734 236.051C170.734 239.348 173.412 242.021 176.714 242.021Z" fill="#1B3A4F"/>
<path d="M192.354 254.421C195.656 254.421 198.334 251.748 198.334 248.45C198.334 245.153 195.656 242.48 192.354 242.48C189.051 242.48 186.374 245.153 186.374 248.45C186.374 251.748 189.051 254.421 192.354 254.421Z" fill="#1B3A4F"/>
<path d="M172.114 273.709C175.417 273.709 178.094 271.036 178.094 267.739C178.094 264.441 175.417 261.768 172.114 261.768C168.812 261.768 166.134 264.441 166.134 267.739C166.134 271.036 168.812 273.709 172.114 273.709Z" fill="#F2F2F2"/>
<path d="M179.474 324.225C179.474 324.225 173.494 309.53 191.434 298.508L179.474 324.225Z" fill="#F2F2F2"/>
<path d="M172.12 323.959C172.12 323.959 169.398 308.331 148.334 308.465L172.12 323.959Z" fill="#F2F2F2"/>
<path opacity="0.2" d="M148.313 192.423C168.637 192.423 185.112 175.974 185.112 155.683C185.112 135.393 168.637 118.944 148.313 118.944C127.989 118.944 111.514 135.393 111.514 155.683C111.514 175.974 127.989 192.423 148.313 192.423Z" fill="#1B3A4F"/>
<path opacity="0.2" d="M148.313 181.556C162.625 181.556 174.228 169.972 174.228 155.683C174.228 141.394 162.625 129.81 148.313 129.81C134.001 129.81 122.398 141.394 122.398 155.683C122.398 169.972 134.001 181.556 148.313 181.556Z" fill="#1B3A4F"/>
<path d="M148.313 172.759C157.759 172.759 165.417 165.114 165.417 155.683C165.417 146.252 157.759 138.607 148.313 138.607C138.867 138.607 131.209 146.252 131.209 155.683C131.209 165.114 138.867 172.759 148.313 172.759Z" fill="#1B3A4F"/>
<path d="M151.423 152C151.423 151.476 151.29 150.961 151.037 150.502C150.784 150.043 150.419 149.655 149.975 149.375C149.531 149.095 149.024 148.932 148.5 148.9C147.976 148.869 147.453 148.97 146.979 149.195C146.505 149.42 146.095 149.761 145.789 150.186C145.482 150.611 145.288 151.107 145.226 151.627C145.163 152.147 145.233 152.675 145.429 153.161C145.625 153.647 145.942 154.075 146.348 154.406L145.203 162.41H151.423L150.277 154.406C150.636 154.115 150.924 153.749 151.122 153.332C151.32 152.916 151.423 152.461 151.423 152Z" fill="white"/>
<path d="M320.202 24.4777C320.202 24.4777 309.944 15.2952 296.148 32.6007C282.351 49.9061 260.773 58.3823 255.82 65.0926C255.82 65.0926 276.338 56.6164 283.413 53.0847C290.488 49.553 290.134 50.2593 290.134 50.2593C290.134 50.2593 280.583 56.9696 278.814 63.6799C277.045 70.3902 278.46 76.0409 275.276 82.7512C272.093 89.4615 336.121 87.3425 336.121 87.3425C336.121 87.3425 342.488 76.3942 340.72 65.0926C338.951 53.791 340.012 25.8904 320.202 24.4777Z" fill="#2F2E41"/>
<path d="M300.799 53.365C300.799 53.365 303.03 68.9548 293.469 72.4545C283.909 75.9543 287.414 80.7267 287.414 80.7267L301.755 87.7262L317.051 82.9538L322.15 75.318C322.15 75.318 313.865 73.409 316.095 67.6821C318.326 61.9553 318.963 60.0463 318.963 60.0463L300.799 53.365Z" fill="#FFB9B9"/>
<path opacity="0.1" d="M300.799 53.365C300.799 53.365 303.03 68.9548 293.469 72.4545C283.909 75.9543 287.414 80.7267 287.414 80.7267L301.755 87.7262L317.051 82.9538L322.15 75.318C322.15 75.318 313.865 73.409 316.095 67.6821C318.326 61.9553 318.963 60.0463 318.963 60.0463L300.799 53.365Z" fill="black"/>
<path d="M340.952 97.9073C340.952 97.9073 338.721 127.178 339.359 128.451C339.996 129.723 339.359 173.947 339.359 173.947C339.359 173.947 343.82 197.809 338.084 199.082C332.348 200.355 333.622 172.357 333.622 172.357L327.886 135.45L328.524 98.8617L340.952 97.9073Z" fill="#FFB9B9"/>
<path opacity="0.1" d="M340.952 97.9073C340.952 97.9073 338.721 127.178 339.359 128.451C339.996 129.723 339.359 173.947 339.359 173.947C339.359 173.947 343.82 197.809 338.084 199.082C332.348 200.355 333.622 172.357 333.622 172.357L327.886 135.45L328.524 98.8617L340.952 97.9073Z" fill="black"/>
<path d="M278.81 186.037C278.81 186.037 268.294 225.807 268.612 245.215C268.931 264.623 273.074 291.666 273.074 291.666C273.074 291.666 273.711 303.438 272.755 304.711C271.799 305.983 277.535 311.392 277.535 311.392L283.59 307.892L285.821 305.347V303.12C285.821 303.12 282.315 292.303 285.184 283.712C288.052 275.122 289.645 253.487 286.777 246.806L306.535 188.265L278.81 186.037Z" fill="#FFB9B9"/>
<path d="M278.173 306.302C278.173 306.302 274.349 301.529 271.799 303.12C269.25 304.711 265.107 315.528 265.107 315.528C265.107 315.528 250.766 329.209 260.964 329.845C271.162 330.482 275.623 326.982 276.898 324.437C278.173 321.891 289.964 315.21 289.964 315.21C289.964 315.21 288.689 303.12 286.777 302.802C284.865 302.484 281.997 307.574 281.997 307.574L278.173 306.302Z" fill="#2F2E41"/>
<path d="M313.546 188.583V228.034C313.583 232.821 313.902 237.602 314.502 242.352C315.458 249.351 309.084 301.529 309.084 301.529L309.722 310.756L317.689 310.12L318.645 302.166L330.117 267.168C330.117 267.168 333.941 245.851 332.029 237.897C330.117 229.943 341.908 179.038 341.908 179.038L313.546 188.583Z" fill="#FFB9B9"/>
<path d="M307.172 308.529L309.532 308.016C309.532 308.016 311.315 304.075 313.546 305.029C315.116 305.752 316.603 306.641 317.982 307.683L318.963 309.483C318.963 309.483 321.194 314.256 324.062 317.437C326.93 320.619 330.117 327.618 325.337 328.255C320.557 328.891 314.183 329.209 312.271 327.618C310.359 326.027 311.634 323.482 309.722 322.846C307.81 322.21 306.216 320.301 306.535 319.664C306.854 319.028 307.172 308.529 307.172 308.529Z" fill="#2F2E41"/>
<path d="M313.546 64.3236C321.368 64.3236 327.709 57.9928 327.709 50.1834C327.709 42.374 321.368 36.0432 313.546 36.0432C305.724 36.0432 299.383 42.374 299.383 50.1834C299.383 57.9928 305.724 64.3236 313.546 64.3236Z" fill="#FFB9B9"/>
<path d="M286.777 74.9998L290.986 73.5326C290.986 73.5326 289.326 76.2724 298.249 77.8633C307.172 79.4541 316.413 80.0172 320.556 74.8042C320.556 74.8042 322.15 74.0453 324.381 76.2725C326.612 78.4996 327.886 77.8633 327.886 77.8633L326.293 86.1354L323.106 101.407L318.963 112.861L307.172 110.315L294.425 101.089L289.645 88.6807V77.2269L286.777 74.9998Z" fill="#1B3A4F"/>
<path d="M325.656 79.454L328.842 77.2269C328.842 77.2269 339.677 79.1359 340.315 84.2264L332.029 100.134C333.719 104.561 333.605 109.472 331.71 113.815C328.524 121.133 328.842 122.724 328.842 122.724L326.612 132.268L286.14 135.45C286.14 135.45 284.546 131.632 283.909 130.996C283.272 130.36 283.272 128.132 283.909 128.132C284.546 128.132 283.909 127.178 283.272 126.223C282.634 125.269 282.316 124.951 283.272 123.678C284.228 122.406 281.678 110.952 281.678 110.952V98.5436L270.843 84.2264C270.843 84.2264 274.667 78.4996 276.579 77.8633C278.491 77.2269 287.587 74.7175 287.587 74.7175L289.645 77.743L292.513 100.771L296.656 114.77L314.099 111.811L320.875 100.453L325.337 87.0899L325.656 79.454Z" fill="#1B3A4F"/>
<path d="M337.765 82.3175L340.315 84.2264C340.315 84.2264 342.545 102.043 341.908 103.316C341.271 104.589 330.117 105.861 329.798 105.225C329.48 104.589 337.765 82.3175 337.765 82.3175Z" fill="#1B3A4F"/>
<path d="M285.184 73.409L288.37 94.4075C288.37 94.4075 285.502 125.587 286.14 131.95L286.777 133.859C286.777 133.859 285.502 133.223 285.184 134.496C284.865 135.768 285.184 139.904 285.184 139.904C285.184 139.904 283.271 141.813 282.634 152.313C281.997 162.812 274.349 187.946 277.217 188.901C280.085 189.855 297.293 194.628 306.535 193.673C315.777 192.719 348.919 181.583 348.6 178.72C348.282 175.856 332.348 135.45 332.348 135.45C332.348 135.45 329.48 130.678 329.48 130.041C329.48 129.405 333.304 126.86 332.348 124.315C331.392 121.769 326.293 95.0439 326.293 95.0439L329.798 75.9543L325.018 74.6816L321.513 93.1349C321.513 93.1349 307.81 99.8162 293.469 93.7712L290.282 72.1364L285.184 73.409Z" fill="#2F2E41"/>
<path d="M300.516 40.0354C300.516 40.0354 324.098 56.2615 330.472 48.9438C336.845 41.6262 319.318 35.263 319.318 35.263L304.659 33.6722L300.516 40.0354Z" fill="#2F2E41"/>
<path d="M263.876 212.649C266.303 214.452 269.306 215.311 272.321 215.062C275.337 214.814 278.158 213.476 280.257 211.299C282.355 209.123 283.586 206.257 283.719 203.239C283.853 200.22 282.879 197.257 280.98 194.905C279.082 192.552 276.389 190.972 273.407 190.46C270.425 189.948 267.358 190.539 264.781 192.123C262.205 193.706 260.295 196.174 259.41 199.063C258.525 201.952 258.726 205.064 259.975 207.816L227.451 234.852L223.12 229.721L221.175 231.02L219.009 228.454L220.789 226.958L218.623 224.392L215.856 226.72L217.188 228.299L214.223 230.793L212.891 229.215L208.542 232.873L210.54 235.241L212.122 233.911L214.287 236.477L212.31 238.14L216.308 242.876L211.563 246.867L216.394 252.591L263.876 212.649ZM271.996 194.512C273.617 194.65 275.161 195.265 276.431 196.28C277.702 197.294 278.643 198.661 279.136 200.209C279.628 201.757 279.649 203.416 279.197 204.976C278.745 206.536 277.84 207.928 276.596 208.974C275.352 210.021 273.825 210.676 272.208 210.856C270.591 211.036 268.957 210.733 267.513 209.986C266.068 209.239 264.878 208.081 264.093 206.659C263.307 205.236 262.962 203.614 263.101 201.995C263.286 199.825 264.328 197.818 265.996 196.414C267.664 195.011 269.823 194.327 271.996 194.512V194.512Z" fill="#1B3A4F"/>
<path d="M268.612 101.725C268.612 101.725 270.843 130.996 270.206 132.268C269.568 133.541 270.206 177.765 270.206 177.765C270.206 177.765 265.744 201.627 271.481 202.9C277.217 204.172 275.942 176.174 275.942 176.174L281.678 139.268L281.041 102.68L268.612 101.725Z" fill="#FFB9B9"/>
<path d="M273.393 83.272L270.843 84.2264C270.843 84.2264 266.063 104.27 267.338 104.27C268.612 104.27 283.909 106.179 283.909 105.543C283.909 104.907 281.041 89.317 281.041 89.317L273.393 83.272Z" fill="#1B3A4F"/>
</g>
<defs>
<clipPath id="clip0">
<rect width="465" height="334" fill="white"/>
</clipPath>
</defs>
</svg>
